<svg version="1.2" baseProfile="tiny-ps" xmlns="http://www.w3.org/2000/svg" viewBox="120 90 422 210" width="302" height="120">
	<title>logo</title>
	<style>
		tspan { white-space:pre }
		.shp0 { fill: #88c946 } 
		.shp1 { fill: none;stroke: #2c2e35;stroke-width: 1.306 } 
		.shp2 { fill: #595b61 } 
	</style>
	<g id="logo">
		<g id="&lt;Group&gt;">
			<g id="&lt;Group&gt;">
				<path id="&lt;Compound Path&gt;" class="shp0" d="M101.39 285.87C101.39 287.21 101.73 288.15 102.4 288.68C103.07 289.21 103.95 289.48 105.04 289.48C105.6 289.48 106.12 289.42 106.61 289.31C107.1 289.2 107.62 289 108.18 288.72L108.18 291.49C107.62 291.8 107.03 292.03 106.4 292.18C105.77 292.34 105.06 292.41 104.28 292.41C103.42 292.41 102.61 292.3 101.85 292.08C101.1 291.85 100.45 291.5 99.9 291.01C99.35 290.52 98.93 289.88 98.62 289.1C98.31 288.32 98.16 287.38 98.16 286.29L98.16 273.2L95.14 273.2L95.14 270.35L98.16 270.35L98.16 263.81L101.39 263.81L101.39 270.35L108.27 270.35L108.27 273.2L101.39 273.2L101.39 285.87Z" />
				<path id="&lt;Compound Path&gt;" fill-rule="evenodd" class="shp0" d="M142.13 285.55C141.56 286.94 140.77 288.15 139.76 289.18C138.76 290.22 137.56 291.04 136.16 291.64C134.76 292.24 133.25 292.54 131.63 292.54C130 292.54 128.51 292.24 127.14 291.64C125.77 291.04 124.58 290.23 123.57 289.2C122.57 288.18 121.78 286.99 121.23 285.62C120.67 284.25 120.39 282.8 120.39 281.26C120.39 279.72 120.67 278.26 121.23 276.87C121.78 275.49 122.57 274.28 123.57 273.25C124.58 272.21 125.78 271.4 127.16 270.79C128.54 270.19 130.06 269.89 131.71 269.89C133.33 269.89 134.84 270.19 136.22 270.79C137.6 271.4 138.8 272.2 139.81 273.23C140.81 274.25 141.59 275.44 142.15 276.81C142.71 278.18 142.99 279.63 142.99 281.17C142.99 282.71 142.71 284.17 142.13 285.55ZM139.07 277.93C138.67 276.9 138.1 276 137.37 275.23C136.64 274.46 135.79 273.86 134.81 273.41C133.84 272.97 132.77 272.74 131.63 272.74C130.45 272.74 129.38 272.96 128.4 273.39C127.42 273.82 126.59 274.42 125.9 275.19C125.22 275.96 124.68 276.85 124.29 277.87C123.9 278.89 123.7 279.98 123.7 281.15C123.7 282.32 123.9 283.42 124.31 284.46C124.71 285.49 125.27 286.38 125.99 287.13C126.7 287.89 127.55 288.49 128.52 288.93C129.5 289.38 130.56 289.6 131.71 289.6C132.89 289.6 133.96 289.39 134.94 288.95C135.92 288.52 136.76 287.93 137.46 287.18C138.16 286.42 138.7 285.54 139.09 284.52C139.48 283.5 139.68 282.41 139.68 281.23C139.68 280.06 139.48 278.96 139.07 277.93Z" />
				<path id="&lt;Compound Path&gt;" class="shp0" d="M172.6 270.35L175.79 270.35L175.79 292.04L172.6 292.04L172.6 288.26C171.87 289.44 170.93 290.44 169.75 291.26C168.58 292.08 167.05 292.5 165.18 292.5C163.86 292.5 162.7 292.29 161.68 291.87C160.65 291.45 159.79 290.85 159.08 290.09C158.36 289.32 157.82 288.4 157.44 287.34C157.06 286.27 156.87 285.1 156.87 283.82L156.87 270.35L160.1 270.35L160.1 283.02C160.1 285.03 160.62 286.62 161.65 287.8C162.69 288.97 164.17 289.56 166.1 289.56C167.02 289.56 167.88 289.4 168.68 289.08C169.48 288.76 170.16 288.3 170.74 287.69C171.31 287.09 171.76 286.37 172.1 285.54C172.43 284.7 172.6 283.77 172.6 282.77L172.6 270.35Z" />
				<path id="&lt;Compound Path&gt;" class="shp0" d="M206.34 291.35C204.96 292.14 203.24 292.54 201.2 292.54C199.61 292.54 198.13 292.24 196.78 291.64C195.42 291.04 194.25 290.23 193.26 289.2C192.26 288.18 191.49 286.99 190.93 285.62C190.37 284.25 190.09 282.8 190.09 281.26C190.09 279.72 190.37 278.26 190.93 276.87C191.49 275.49 192.26 274.28 193.26 273.25C194.25 272.21 195.42 271.4 196.78 270.79C198.13 270.19 199.61 269.89 201.2 269.89C202.24 269.89 203.18 269.99 204.01 270.18C204.85 270.38 205.62 270.65 206.32 271C207.02 271.35 207.66 271.76 208.25 272.24C208.84 272.72 209.38 273.22 209.89 273.75L207.75 276.01C206.88 275.12 205.94 274.35 204.92 273.71C203.9 273.06 202.64 272.74 201.16 272.74C200.07 272.74 199.05 272.96 198.1 273.39C197.15 273.82 196.33 274.42 195.63 275.19C194.93 275.96 194.38 276.85 193.99 277.87C193.6 278.89 193.4 279.98 193.4 281.15C193.4 282.32 193.61 283.42 194.01 284.46C194.42 285.49 194.98 286.39 195.69 287.16C196.4 287.92 197.24 288.52 198.2 288.95C199.17 289.39 200.23 289.6 201.37 289.6C202.77 289.6 204.01 289.3 205.08 288.68C206.16 288.06 207.13 287.3 208 286.37L210.05 288.3C208.96 289.54 207.73 290.55 206.34 291.35Z" />
				<path id="&lt;Compound Path&gt;" class="shp0" d="M227 292.04L223.77 292.04L223.77 261.42L227 261.42L227 274.13C227.72 272.95 228.68 271.95 229.85 271.13C231.03 270.3 232.55 269.89 234.42 269.89C235.74 269.89 236.9 270.1 237.92 270.52C238.94 270.94 239.81 271.53 240.53 272.3C241.24 273.07 241.78 273.99 242.16 275.05C242.54 276.11 242.73 277.29 242.73 278.57L242.73 292.04L239.5 292.04L239.5 279.37C239.5 277.36 238.98 275.76 237.94 274.59C236.91 273.41 235.43 272.83 233.5 272.83C232.58 272.83 231.72 272.99 230.92 273.31C230.12 273.63 229.43 274.09 228.84 274.69C228.26 275.29 227.8 276.01 227.48 276.85C227.16 277.69 227 278.61 227 279.62L227 292.04Z" />
				<path id="&lt;Compound Path&gt;" class="shp0" d="M258.08 265.61L258.08 262.05L261.77 262.05L261.77 265.61L258.08 265.61ZM258.29 292.04L258.29 270.35L261.51 270.35L261.51 292.04L258.29 292.04Z" />
				<path id="&lt;Compound Path&gt;" class="shp0" d="M280.64 292.04L277.41 292.04L277.41 270.35L280.64 270.35L280.64 274.13C281.36 272.95 282.32 271.95 283.49 271.13C284.66 270.3 286.19 269.89 288.06 269.89C289.37 269.89 290.54 270.1 291.56 270.52C292.58 270.94 293.45 271.53 294.16 272.3C294.88 273.07 295.42 273.99 295.8 275.05C296.18 276.11 296.37 277.29 296.37 278.57L296.37 292.04L293.14 292.04L293.14 279.37C293.14 277.36 292.62 275.76 291.58 274.59C290.55 273.41 289.07 272.83 287.14 272.83C286.22 272.83 285.36 272.99 284.56 273.31C283.76 273.63 283.07 274.09 282.48 274.69C281.9 275.29 281.44 276.01 281.12 276.85C280.8 277.69 280.64 278.61 280.64 279.62L280.64 292.04Z" />
				<path id="&lt;Compound Path&gt;" fill-rule="evenodd" class="shp0" d="M331.49 292.87C330.97 294.19 330.23 295.29 329.26 296.17C328.3 297.05 327.14 297.71 325.79 298.16C324.43 298.61 322.91 298.83 321.24 298.83C319.42 298.83 317.68 298.58 316.03 298.08C314.38 297.57 312.83 296.82 311.38 295.81L312.85 293.29C314.1 294.19 315.42 294.87 316.79 295.35C318.16 295.82 319.63 296.06 321.19 296.06C323.6 296.06 325.51 295.41 326.94 294.11C328.36 292.81 329.08 290.89 329.08 288.34L329.08 285.79C328.13 287.04 326.97 288.12 325.6 289.02C324.22 289.91 322.55 290.36 320.56 290.36C319.25 290.36 317.98 290.13 316.77 289.66C315.55 289.2 314.47 288.53 313.52 287.65C312.57 286.77 311.8 285.7 311.23 284.44C310.66 283.19 310.37 281.76 310.37 280.17C310.37 278.57 310.66 277.14 311.23 275.87C311.8 274.6 312.57 273.52 313.52 272.64C314.47 271.76 315.56 271.08 316.79 270.61C318.02 270.13 319.28 269.89 320.56 269.89C321.57 269.89 322.5 270.01 323.35 270.25C324.21 270.48 324.98 270.8 325.66 271.19C326.34 271.58 326.97 272.04 327.53 272.58C328.08 273.11 328.59 273.66 329.03 274.25L329.03 270.35L332.27 270.35L332.27 288.26C332.27 290.02 332.01 291.56 331.49 292.87ZM328.49 277.08C328.04 276.18 327.45 275.4 326.71 274.76C325.97 274.11 325.12 273.62 324.17 273.27C323.22 272.92 322.23 272.74 321.19 272.74C320.16 272.74 319.18 272.91 318.28 273.25C317.37 273.58 316.57 274.07 315.89 274.71C315.2 275.36 314.66 276.13 314.27 277.04C313.88 277.95 313.69 278.97 313.69 280.08C313.69 281.2 313.89 282.22 314.29 283.12C314.7 284.03 315.24 284.81 315.93 285.47C316.62 286.13 317.41 286.63 318.32 286.98C319.23 287.33 320.19 287.51 321.19 287.51C322.23 287.51 323.22 287.33 324.17 286.98C325.12 286.63 325.97 286.14 326.71 285.49C327.45 284.85 328.04 284.07 328.49 283.16C328.94 282.26 329.16 281.24 329.16 280.12C329.16 279.01 328.94 277.99 328.49 277.08Z" />
				<path id="&lt;Compound Path&gt;" class="shp0" d="M380.12 270.44L380.12 273.2L373.28 273.2L373.28 292.04L370.05 292.04L370.05 273.2L367.08 273.2L367.08 270.39L370.05 270.39L370.05 268.51C370.05 266.13 370.62 264.33 371.75 263.1C372.88 261.87 374.5 261.25 376.6 261.25C377.35 261.25 378 261.29 378.54 261.38C379.09 261.46 379.63 261.6 380.16 261.8L380.16 264.61C379.57 264.44 379.04 264.31 378.57 264.21C378.09 264.11 377.57 264.06 377.02 264.06C374.5 264.06 373.24 265.6 373.24 268.68L373.24 270.44L380.12 270.44Z" />
				<path id="&lt;Compound Path&gt;" class="shp0" d="M408.01 270.35L411.19 270.35L411.19 292.04L408.01 292.04L408.01 288.26C407.28 289.44 406.33 290.44 405.16 291.26C403.98 292.08 402.46 292.5 400.58 292.5C399.27 292.5 398.1 292.29 397.08 291.87C396.06 291.45 395.2 290.85 394.48 290.09C393.77 289.32 393.22 288.4 392.84 287.34C392.47 286.27 392.28 285.1 392.28 283.82L392.28 270.35L395.51 270.35L395.51 283.02C395.51 285.03 396.02 286.62 397.06 287.8C398.1 288.97 399.58 289.56 401.51 289.56C402.43 289.56 403.29 289.4 404.09 289.08C404.88 288.76 405.56 288.3 406.14 287.69C406.71 287.09 407.17 286.37 407.5 285.54C407.84 284.7 408.01 283.77 408.01 282.77L408.01 270.35Z" />
				<path id="&lt;Compound Path&gt;" class="shp0" d="M431.2 285.87C431.2 287.21 431.54 288.15 432.21 288.68C432.88 289.21 433.76 289.48 434.85 289.48C435.41 289.48 435.93 289.42 436.42 289.31C436.91 289.2 437.43 289 437.99 288.72L437.99 291.49C437.43 291.8 436.84 292.03 436.21 292.18C435.58 292.34 434.88 292.41 434.09 292.41C433.23 292.41 432.41 292.3 431.66 292.08C430.9 291.85 430.25 291.5 429.71 291.01C429.17 290.52 428.74 289.88 428.43 289.1C428.12 288.32 427.97 287.38 427.97 286.29L427.97 273.2L424.95 273.2L424.95 270.35L427.97 270.35L427.97 263.81L431.2 263.81L431.2 270.35L438.07 270.35L438.07 273.2L431.2 273.2L431.2 285.87Z" />
				<path id="&lt;Compound Path&gt;" class="shp0" d="M467.56 270.35L470.75 270.35L470.75 292.04L467.56 292.04L467.56 288.26C466.84 289.44 465.89 290.44 464.71 291.26C463.54 292.08 462.01 292.5 460.14 292.5C458.82 292.5 457.66 292.29 456.64 291.87C455.61 291.45 454.75 290.85 454.04 290.09C453.32 289.32 452.78 288.4 452.4 287.34C452.02 286.27 451.84 285.1 451.84 283.82L451.84 270.35L455.06 270.35L455.06 283.02C455.06 285.03 455.58 286.62 456.62 287.8C457.65 288.97 459.13 289.56 461.06 289.56C461.98 289.56 462.84 289.4 463.64 289.08C464.44 288.76 465.12 288.3 465.69 287.69C466.27 287.09 466.72 286.37 467.06 285.54C467.39 284.7 467.56 283.77 467.56 282.77L467.56 270.35Z" />
				<path id="&lt;Compound Path&gt;" class="shp0" d="M489.62 292.04L486.39 292.04L486.39 270.35L489.62 270.35L489.62 276.01C490.01 275.12 490.5 274.29 491.09 273.54C491.67 272.79 492.34 272.14 493.1 271.59C493.86 271.04 494.68 270.63 495.57 270.35C496.47 270.07 497.43 269.95 498.47 269.97L498.47 273.46L498.22 273.46C497.04 273.46 495.93 273.66 494.88 274.08C493.83 274.5 492.92 275.13 492.14 275.97C491.35 276.81 490.74 277.85 490.29 279.1C489.84 280.34 489.62 281.77 489.62 283.4L489.62 292.04Z" />
				<path id="&lt;Compound Path&gt;" fill-rule="evenodd" class="shp0" d="M513.65 285.51C514.1 286.42 514.67 287.19 515.37 287.82C516.07 288.45 516.85 288.93 517.72 289.25C518.59 289.57 519.5 289.73 520.45 289.73C521.95 289.73 523.25 289.45 524.32 288.89C525.4 288.33 526.39 287.59 527.28 286.67L529.3 288.47C528.2 289.7 526.96 290.69 525.56 291.43C524.17 292.17 522.43 292.54 520.36 292.54C518.88 292.54 517.48 292.27 516.17 291.72C514.85 291.18 513.7 290.41 512.72 289.41C511.73 288.42 510.95 287.23 510.37 285.83C509.79 284.43 509.5 282.89 509.5 281.22C509.5 279.65 509.76 278.17 510.27 276.79C510.79 275.41 511.51 274.2 512.44 273.18C513.36 272.16 514.46 271.36 515.73 270.77C517 270.18 518.39 269.89 519.9 269.89C521.5 269.89 522.92 270.19 524.18 270.79C525.44 271.4 526.5 272.21 527.36 273.25C528.23 274.28 528.89 275.5 529.34 276.9C529.78 278.29 530.01 279.79 530.01 281.38C530.01 281.52 530.01 281.68 530.01 281.84C530.01 282.01 530 282.19 529.97 282.39L512.81 282.39C512.92 283.56 513.2 284.61 513.65 285.51ZM526.7 280C526.61 279.02 526.41 278.08 526.09 277.19C525.77 276.29 525.33 275.51 524.76 274.84C524.18 274.17 523.49 273.63 522.67 273.23C521.85 272.82 520.9 272.62 519.81 272.62C518.87 272.62 518 272.8 517.19 273.18C516.38 273.56 515.68 274.08 515.06 274.73C514.45 275.39 513.95 276.17 513.56 277.06C513.17 277.96 512.92 278.94 512.81 280L526.7 280Z" />
			</g>
			<path id="&lt;Path&gt;" class="shp1" d="M1 1L630.38 1L630.38 378.63L1 378.63L1 1Z" />
			<g id="&lt;Group&gt;">
				<g id="&lt;Group&gt;">
					<path id="&lt;Compound Path&gt;" fill-rule="evenodd" class="shp2" d="M265.45 190.28C265.45 214.89 245.52 234.83 220.91 234.83C196.31 234.83 176.37 214.89 176.37 190.28C176.37 165.69 196.31 145.75 220.91 145.75C245.52 145.75 265.45 165.69 265.45 190.28ZM252.57 190.28C252.57 172.8 238.39 158.63 220.91 158.63C203.43 158.63 189.26 172.8 189.26 190.28C189.26 207.77 203.43 221.94 220.91 221.94C238.39 221.94 252.57 207.77 252.57 190.28Z" />
					<path id="&lt;Path&gt;" class="shp2" d="M265.45 191.47C265.45 195.02 262.57 197.9 259.02 197.9C255.46 197.9 252.58 195.02 252.58 191.47L252.58 138.42C252.58 134.87 255.46 131.98 259.02 131.98C262.57 131.98 265.45 134.87 265.45 138.42L265.45 191.47Z" />
				</g>
				<path id="&lt;Path&gt;" class="shp2" d="M347.48 159.01C347.36 158.88 347.24 158.76 347.12 158.63C347.11 158.63 347.11 158.63 347.1 158.63C345.94 157.53 344.38 156.86 342.67 156.86C339.1 156.86 336.21 159.75 336.21 163.31C336.21 165.13 336.97 166.78 338.19 167.94C343.9 173.67 347.43 181.57 347.43 190.28C347.43 207.77 333.25 221.94 315.77 221.94C298.29 221.94 284.12 207.77 284.12 190.28C284.12 181.64 287.6 173.8 293.22 168.09C294.51 166.92 295.33 165.22 295.33 163.32C295.33 159.76 292.44 156.87 288.88 156.87C287.19 156.87 285.65 157.53 284.5 158.6L284.49 158.58C276.31 166.66 271.23 177.88 271.23 190.28C271.23 214.89 291.18 234.83 315.77 234.83C340.37 234.83 360.32 214.89 360.32 190.28C360.32 178.1 355.41 167.06 347.48 159.01Z" />
				<path id="&lt;Path&gt;" class="shp0" d="M322.21 176.67C322.21 180.22 319.33 183.11 315.77 183.11C312.22 183.11 309.34 180.22 309.34 176.67L309.34 147.03C309.34 143.48 312.22 140.6 315.77 140.6C319.33 140.6 322.21 143.48 322.21 147.03L322.21 176.67Z" />
				<path id="&lt;Path&gt;" class="shp2" d="M444.19 201.9C441.7 201.9 439.53 203.31 438.46 205.38C433.1 215.25 422.66 221.94 410.64 221.94C393.16 221.94 378.99 207.77 378.99 190.29C378.99 172.81 393.16 158.63 410.64 158.63C422.67 158.63 433.14 165.36 438.49 175.24C439.58 177.27 441.72 178.66 444.19 178.66C447.75 178.66 450.64 175.78 450.64 172.21C450.64 170.91 450.25 169.7 449.59 168.68C441.98 155.01 427.39 145.76 410.64 145.76C386.04 145.76 366.1 165.69 366.1 190.29C366.1 214.89 386.04 234.83 410.64 234.83C427.5 234.83 442.17 225.45 449.74 211.63C449.79 211.54 449.84 211.45 449.88 211.37C449.88 211.37 449.89 211.36 449.89 211.35C450.37 210.45 450.64 209.44 450.64 208.35C450.64 204.79 447.75 201.9 444.19 201.9Z" />
				<path id="&lt;Path&gt;" class="shp2" d="M158.16 194.75C164.58 194.75 169.78 189.55 169.78 183.13C169.78 182.31 169.7 181.5 169.53 180.73L169.49 180.41C165 160.57 147.25 145.75 126.05 145.75C101.45 145.75 81.5 165.69 81.5 190.28C81.5 214.89 101.45 234.83 126.05 234.83C143.02 234.83 157.78 225.34 165.3 211.36L165.27 211.35C165.74 210.45 166.01 209.44 166.01 208.37C166.01 204.81 163.13 201.92 159.57 201.92C157.19 201.92 155.1 203.24 153.99 205.17L153.99 205.16C148.67 215.15 138.15 221.94 126.05 221.94C108.57 221.94 94.4 207.77 94.4 190.28C94.4 172.8 108.57 158.63 126.05 158.63C140.61 158.63 152.89 168.49 156.57 181.89L110.87 181.89C107.32 181.89 104.44 184.77 104.44 188.32C104.44 191.88 107.32 194.76 110.87 194.76L157.38 194.76L158.16 194.75Z" />
				<path id="&lt;Compound Path&gt;" fill-rule="evenodd" class="shp0" d="M460.96 186.32C471.11 185.82 476.89 181.05 483.04 173.76L483.08 173.76C488.2 166.74 496.47 162.18 505.82 162.18C521.36 162.18 533.95 174.77 533.95 190.3C533.95 205.84 521.36 218.43 505.82 218.43C496.47 218.43 488.2 213.87 483.08 206.85L483.04 206.85C476.89 199.56 471.11 194.79 460.96 194.3L456.64 194.3C446.48 194.79 440.71 199.56 434.55 206.85L434.51 206.85C429.4 213.87 421.12 218.43 411.77 218.43C396.24 218.43 383.64 205.84 383.64 190.3C383.64 174.77 396.24 162.18 411.77 162.18C421.12 162.18 429.4 166.74 434.51 173.76L434.55 173.76C440.71 181.05 446.48 185.82 456.64 186.32L460.96 186.32ZM432.36 190.3C432.36 178.79 423.03 169.45 411.52 169.45C400 169.45 390.66 178.79 390.66 190.3C390.66 201.82 400 211.16 411.52 211.16C423.03 211.16 432.36 201.82 432.36 190.3Z" />
				<path id="&lt;Path&gt;" class="shp2" d="M477.8 205.87C483.23 215.47 493.52 221.96 505.34 221.96C522.82 221.96 536.99 207.79 536.99 190.31C536.99 172.82 522.82 158.66 505.34 158.66C493.47 158.66 483.14 165.2 477.73 174.87C473.33 179.37 468.49 181.22 461.63 181.83C465.59 161.29 483.65 145.77 505.34 145.77C529.94 145.77 549.88 165.71 549.88 190.31C549.88 214.9 529.94 234.84 505.34 234.84C483.66 234.84 465.62 219.34 461.64 198.83C468.54 199.44 473.38 201.31 477.8 205.87Z" />
			</g>
		</g>
	</g>
</svg>